<svg width="24" height="24" viewBox="0 0 24 24" fill="none" xmlns="http://www.w3.org/2000/svg">
<path d="M13.0606 0.4395C12.7793 0.158293 12.3979 0.000320435 12.0001 0.000320435C11.6024 0.000320435 11.2209 0.158293 10.9396 0.4395L0.439622 10.9395C0.166385 11.2224 0.0151938 11.6013 0.0186114 11.9946C0.022029 12.3879 0.179782 12.7641 0.457895 13.0422C0.736007 13.3203 1.11223 13.4781 1.50552 13.4815C1.89882 13.4849 2.27772 13.3337 2.56062 13.0605L3.00012 12.621V22.5C3.00012 22.8978 3.15816 23.2794 3.43946 23.5607C3.72077 23.842 4.1023 24 4.50012 24H7.50012C7.89795 24 8.27948 23.842 8.56078 23.5607C8.84209 23.2794 9.00012 22.8978 9.00012 22.5V19.5C9.00012 19.1022 9.15816 18.7206 9.43946 18.4393C9.72077 18.158 10.1023 18 10.5001 18H13.5001C13.8979 18 14.2795 18.158 14.5608 18.4393C14.8421 18.7206 15.0001 19.1022 15.0001 19.5V22.5C15.0001 22.8978 15.1582 23.2794 15.4395 23.5607C15.7208 23.842 16.1023 24 16.5001 24H19.5001C19.8979 24 20.2795 23.842 20.5608 23.5607C20.8421 23.2794 21.0001 22.8978 21.0001 22.5V12.621L21.4396 13.0605C21.7225 13.3337 22.1014 13.4849 22.4947 13.4815C22.888 13.4781 23.2642 13.3203 23.5424 13.0422C23.8205 12.7641 23.9782 12.3879 23.9816 11.9946C23.9851 11.6013 23.8339 11.2224 23.5606 10.9395L13.0606 0.4395Z" fill="white"/>
</svg>
